<svg xmlns="http://www.w3.org/2000/svg" xmlns:xlink="http://www.w3.org/1999/xlink" width="512" zoomAndPan="magnify" viewBox="0 0 384 383.999986" height="512" preserveAspectRatio="xMidYMid meet" version="1.0"><defs><clipPath id="4e37d6d595"><path d="M 99 83 L 313 83 L 313 275 L 99 275 Z M 99 83 " clip-rule="nonzero"/></clipPath><clipPath id="4f424a7c3e"><path d="M 78.359375 103.832031 L 296.621094 67.589844 L 327.828125 255.515625 L 109.566406 291.757812 Z M 78.359375 103.832031 " clip-rule="nonzero"/></clipPath><clipPath id="4d53d0a0da"><path d="M 78.359375 103.832031 L 296.621094 67.589844 L 327.828125 255.515625 L 109.566406 291.757812 Z M 78.359375 103.832031 " clip-rule="nonzero"/></clipPath></defs><path fill="#78b74c" d="M 343.082031 62.273438 C 239.636719 71.253906 201.269531 9.8125 191.945312 2.25 C 182.617188 9.8125 144.25 71.253906 40.8125 62.273438 C 40.8125 62.273438 25.945312 198.539062 97.792969 298.886719 C 97.792969 298.886719 142.394531 360.824219 191.945312 381.75 C 241.496094 360.824219 286.09375 298.886719 286.09375 298.886719 C 357.941406 198.539062 343.082031 62.273438 343.082031 62.273438 " fill-opacity="1" fill-rule="nonzero"/><path fill="#ffffff" d="M 343.082031 62.273438 L 342.890625 60.136719 C 335.9375 60.742188 329.285156 61.023438 322.921875 61.023438 C 279.183594 61.015625 249.105469 47.726562 228.785156 33.59375 C 218.628906 26.519531 210.917969 19.234375 205.203125 13.261719 C 202.339844 10.273438 199.976562 7.617188 198.035156 5.460938 C 197.070312 4.378906 196.203125 3.429688 195.425781 2.613281 C 194.644531 1.800781 193.960938 1.128906 193.292969 0.585938 C 192.503906 -0.0507812 191.386719 -0.0507812 190.59375 0.585938 C 189.929688 1.128906 189.242188 1.800781 188.464844 2.613281 C 187.007812 4.136719 185.238281 6.160156 183.058594 8.5625 C 175.441406 16.960938 162.832031 30.039062 143.183594 41.058594 C 123.53125 52.066406 96.847656 61.019531 60.96875 61.023438 C 54.601562 61.023438 47.953125 60.742188 40.996094 60.136719 C 39.835938 60.035156 38.808594 60.886719 38.683594 62.039062 C 38.671875 62.101562 37.394531 73.851562 37.394531 92.976562 C 37.394531 116.085938 39.257812 149.964844 47.515625 187.023438 C 55.773438 224.085938 70.421875 264.335938 96.054688 300.132812 L 96.058594 300.136719 C 96.09375 300.191406 107.296875 315.742188 124.738281 333.953125 C 133.464844 343.054688 143.753906 352.828125 155.007812 361.660156 C 166.261719 370.492188 178.484375 378.386719 191.109375 383.722656 C 191.644531 383.949219 192.242188 383.949219 192.78125 383.722656 C 205.40625 378.386719 217.628906 370.492188 228.882812 361.660156 C 262.628906 335.164062 287.765625 300.21875 287.832031 300.136719 L 287.835938 300.132812 C 313.464844 264.335938 328.113281 224.082031 336.371094 187.023438 C 344.628906 149.960938 346.496094 116.082031 346.496094 92.972656 C 346.496094 73.847656 345.214844 62.101562 345.210938 62.039062 C 345.082031 60.886719 344.050781 60.035156 342.890625 60.136719 L 343.082031 62.273438 L 340.949219 62.503906 L 340.964844 62.628906 C 341.097656 63.917969 342.210938 75.222656 342.210938 92.972656 C 342.210938 115.851562 340.355469 149.4375 332.191406 186.09375 C 324.023438 222.746094 309.542969 262.457031 284.351562 297.636719 L 284.351562 297.632812 C 284.351562 297.632812 284.316406 297.683594 284.230469 297.800781 C 282.941406 299.570312 271.488281 315.105469 254.421875 332.679688 C 237.363281 350.257812 214.65625 369.847656 191.109375 379.773438 L 191.945312 381.75 L 192.78125 379.773438 C 180.632812 374.648438 168.691406 366.953125 157.652344 358.285156 C 141.082031 345.285156 126.527344 330.097656 116.132812 318.179688 C 110.9375 312.214844 106.78125 307.066406 103.925781 303.417969 C 102.5 301.59375 101.398438 300.140625 100.652344 299.148438 C 100.285156 298.652344 100 298.269531 99.8125 298.015625 C 99.71875 297.882812 99.648438 297.789062 99.601562 297.726562 L 99.535156 297.632812 L 99.539062 297.636719 C 74.34375 262.457031 59.867188 222.75 51.699219 186.09375 C 43.53125 149.441406 41.679688 115.855469 41.679688 92.976562 C 41.679688 83.511719 41.996094 75.878906 42.316406 70.617188 C 42.46875 67.988281 42.628906 65.949219 42.746094 64.578125 C 42.804688 63.890625 42.855469 63.367188 42.886719 63.019531 C 42.90625 62.847656 42.917969 62.714844 42.929688 62.628906 L 42.941406 62.503906 L 40.8125 62.273438 L 40.625 64.410156 C 47.703125 65.019531 54.476562 65.308594 60.96875 65.308594 C 105.582031 65.316406 136.648438 51.671875 157.550781 37.109375 C 168.007812 29.835938 175.933594 22.332031 181.785156 16.226562 C 184.707031 13.167969 187.113281 10.464844 189.039062 8.328125 C 190 7.253906 190.839844 6.328125 191.5625 5.578125 C 192.277344 4.828125 192.875 4.253906 193.292969 3.914062 L 191.945312 2.25 L 190.59375 3.914062 C 191.011719 4.253906 191.613281 4.828125 192.332031 5.578125 C 193.679688 6.988281 195.453125 9.007812 197.660156 11.441406 C 205.382812 19.957031 218.378906 33.460938 238.609375 44.796875 C 258.839844 56.140625 286.324219 65.3125 322.921875 65.308594 C 329.410156 65.308594 336.1875 65.019531 343.265625 64.410156 L 343.082031 62.273438 L 340.949219 62.503906 L 343.082031 62.273438 " fill-opacity="1" fill-rule="nonzero"/><path fill="#78b74c" d="M 59.988281 78.734375 C 59.988281 78.734375 54.285156 131.144531 68.773438 192 L 191.945312 192 L 191.945312 26.332031 C 183.796875 32.9375 150.300781 86.574219 59.988281 78.734375 " fill-opacity="1" fill-rule="nonzero"/><path fill="#ffffff" d="M 59.988281 78.734375 L 57.859375 78.503906 C 57.855469 78.566406 56.742188 88.8125 56.742188 105.5 C 56.742188 126.679688 58.53125 158.234375 66.691406 192.496094 C 66.921875 193.457031 67.785156 194.144531 68.773438 194.144531 L 191.945312 194.144531 C 192.511719 194.144531 193.058594 193.914062 193.460938 193.515625 C 193.859375 193.113281 194.089844 192.566406 194.089844 192 L 194.089844 26.332031 C 194.089844 25.507812 193.613281 24.753906 192.867188 24.398438 C 192.121094 24.042969 191.238281 24.148438 190.59375 24.671875 C 189.996094 25.15625 189.394531 25.75 188.707031 26.464844 C 187.429688 27.800781 185.886719 29.5625 183.980469 31.660156 C 177.335938 38.984375 166.359375 50.378906 149.234375 59.976562 C 132.113281 69.570312 108.867188 77.371094 77.589844 77.375 C 72.039062 77.375 66.238281 77.128906 60.175781 76.601562 C 59.015625 76.5 57.988281 77.347656 57.859375 78.503906 L 59.988281 78.734375 L 59.804688 80.875 C 65.992188 81.410156 71.914062 81.660156 77.589844 81.660156 C 116.59375 81.667969 143.777344 69.734375 162.066406 56.992188 C 171.21875 50.625 178.152344 44.066406 183.265625 38.71875 C 185.824219 36.054688 187.925781 33.683594 189.605469 31.820312 C 190.449219 30.886719 191.179688 30.078125 191.804688 29.425781 C 192.429688 28.777344 192.941406 28.28125 193.292969 27.996094 L 191.945312 26.332031 L 189.804688 26.332031 L 189.804688 189.859375 L 68.773438 189.859375 L 68.773438 192 L 70.859375 191.503906 C 62.804688 157.679688 61.023438 126.433594 61.027344 105.5 C 61.027344 97.25 61.300781 90.605469 61.574219 86.027344 C 61.714844 83.738281 61.851562 81.960938 61.953125 80.769531 C 62.003906 80.171875 62.042969 79.71875 62.078125 79.414062 C 62.089844 79.261719 62.101562 79.148438 62.109375 79.074219 L 62.121094 78.96875 L 59.988281 78.734375 L 59.804688 80.875 L 59.988281 78.734375 " fill-opacity="1" fill-rule="nonzero"/><path fill="#78b74c" d="M 191.945312 357.667969 C 235.210938 339.398438 274.144531 285.316406 274.144531 285.316406 C 295.242188 255.851562 307.769531 222.84375 315.113281 192 L 191.945312 192 L 191.945312 357.667969 " fill-opacity="1" fill-rule="nonzero"/><path fill="#ffffff" d="M 191.945312 357.667969 L 191.945312 359.808594 C 192.230469 359.808594 192.515625 359.75 192.78125 359.640625 C 203.835938 354.972656 214.527344 348.0625 224.367188 340.339844 C 253.863281 317.179688 275.816406 286.652344 275.886719 286.566406 L 275.886719 286.5625 C 297.195312 256.804688 309.808594 223.535156 317.199219 192.496094 C 317.351562 191.855469 317.203125 191.191406 316.796875 190.671875 C 316.386719 190.15625 315.773438 189.859375 315.113281 189.859375 L 191.945312 189.859375 C 191.382812 189.859375 190.828125 190.085938 190.429688 190.488281 C 190.03125 190.882812 189.804688 191.4375 189.804688 192 L 189.804688 357.667969 C 189.804688 358.230469 190.03125 358.785156 190.429688 359.183594 C 190.828125 359.582031 191.382812 359.808594 191.945312 359.808594 L 191.945312 357.667969 L 194.089844 357.667969 L 194.089844 194.144531 L 315.113281 194.144531 L 315.113281 192 L 313.03125 191.503906 C 305.734375 222.148438 293.292969 254.898438 272.402344 284.070312 L 272.410156 284.066406 C 272.410156 284.066406 272.375 284.109375 272.300781 284.210938 C 271.179688 285.75 261.1875 299.308594 246.296875 314.636719 C 231.421875 329.96875 211.609375 347.054688 191.113281 355.695312 L 191.945312 357.667969 L 191.945312 355.523438 L 191.945312 357.667969 L 194.089844 357.667969 L 191.945312 357.667969 " fill-opacity="1" fill-rule="nonzero"/><path fill="#78b74c" d="M 323.898438 78.734375 C 233.585938 86.578125 200.089844 32.933594 191.945312 26.332031 L 191.945312 192 L 315.113281 192 C 329.605469 131.144531 323.898438 78.734375 323.898438 78.734375 " fill-opacity="1" fill-rule="nonzero"/><path fill="#ffffff" d="M 323.898438 78.734375 L 323.710938 76.601562 C 317.648438 77.128906 311.847656 77.375 306.296875 77.375 C 268.167969 77.363281 241.96875 65.785156 224.265625 53.472656 C 215.417969 47.3125 208.699219 40.964844 203.714844 35.757812 C 201.222656 33.148438 199.160156 30.832031 197.46875 28.953125 C 196.621094 28.007812 195.863281 27.175781 195.183594 26.460938 C 194.496094 25.746094 193.894531 25.15625 193.292969 24.667969 C 192.441406 23.976562 191.207031 24.039062 190.429688 24.816406 C 190.03125 25.21875 189.804688 25.765625 189.804688 26.332031 L 189.804688 192 C 189.804688 192.566406 190.03125 193.113281 190.429688 193.515625 C 190.828125 193.914062 191.382812 194.144531 191.945312 194.144531 L 315.113281 194.144531 C 316.101562 194.144531 316.96875 193.457031 317.199219 192.496094 C 325.355469 158.234375 327.148438 126.683594 327.148438 105.5 C 327.148438 88.816406 326.035156 78.566406 326.03125 78.503906 C 325.90625 77.351562 324.871094 76.5 323.710938 76.601562 L 323.898438 78.734375 L 321.769531 78.96875 L 321.777344 79.074219 C 321.894531 80.191406 322.863281 90.035156 322.863281 105.5 C 322.863281 126.4375 321.082031 157.683594 313.03125 191.503906 L 315.113281 192 L 315.113281 189.859375 L 194.089844 189.859375 L 194.089844 26.332031 L 191.945312 26.332031 L 193.460938 27.847656 L 191.945312 26.332031 L 190.597656 27.996094 C 190.945312 28.277344 191.464844 28.777344 192.085938 29.425781 C 193.257812 30.648438 194.808594 32.414062 196.734375 34.539062 C 203.484375 41.984375 214.855469 53.796875 232.554688 63.714844 C 250.253906 73.640625 274.304688 81.664062 306.296875 81.660156 C 311.976562 81.660156 317.898438 81.410156 324.082031 80.875 L 323.898438 78.734375 L 321.769531 78.96875 L 323.898438 78.734375 " fill-opacity="1" fill-rule="nonzero"/><path fill="#78b74c" d="M 109.742188 285.316406 C 109.742188 285.316406 148.679688 339.398438 191.945312 357.667969 L 191.945312 192 L 68.773438 192 C 76.121094 222.84375 88.644531 255.851562 109.742188 285.316406 " fill-opacity="1" fill-rule="nonzero"/><path fill="#ffffff" d="M 109.742188 285.316406 L 108.007812 286.566406 C 108.042969 286.621094 117.828125 300.210938 133.074219 316.125 C 140.699219 324.082031 149.6875 332.617188 159.527344 340.339844 C 169.367188 348.0625 180.050781 354.972656 191.109375 359.640625 C 191.769531 359.917969 192.53125 359.851562 193.125 359.453125 C 193.726562 359.054688 194.089844 358.382812 194.089844 357.667969 L 194.089844 192 C 194.089844 191.4375 193.859375 190.882812 193.460938 190.488281 C 193.058594 190.085938 192.511719 189.859375 191.945312 189.859375 L 68.773438 189.859375 C 68.117188 189.859375 67.5 190.15625 67.097656 190.671875 C 66.6875 191.191406 66.539062 191.855469 66.691406 192.496094 C 74.085938 223.535156 86.695312 256.804688 108.003906 286.5625 L 108.007812 286.566406 L 109.742188 285.316406 L 111.488281 284.070312 C 90.597656 254.898438 78.15625 222.148438 70.859375 191.503906 L 68.773438 192 L 68.773438 194.144531 L 189.804688 194.144531 L 189.804688 357.667969 L 191.945312 357.667969 L 192.78125 355.695312 C 182.203125 351.230469 171.796875 344.53125 162.171875 336.972656 C 147.726562 325.632812 135.027344 312.386719 125.960938 301.984375 C 121.429688 296.785156 117.800781 292.292969 115.308594 289.109375 C 114.066406 287.519531 113.105469 286.25 112.460938 285.386719 C 112.132812 284.953125 111.890625 284.621094 111.726562 284.398438 C 111.644531 284.285156 111.585938 284.203125 111.542969 284.144531 L 111.484375 284.066406 L 111.488281 284.070312 L 109.742188 285.316406 " fill-opacity="1" fill-rule="nonzero"/><g clip-path="url(#4e37d6d595)"><g clip-path="url(#4f424a7c3e)"><g clip-path="url(#4d53d0a0da)"><path stroke-linecap="butt" transform="matrix(0.0728709, -0.0120996, 0.0120996, 0.0728709, 78.362879, 103.840105)" fill-opacity="1" fill="#ffffff" fill-rule="nonzero" stroke-linejoin="miter" d="M 1541.667821 44.665942 C 1611.021808 -18.222235 1728.58777 -14.086071 1793.257106 53.580276 C 1850.095351 109.975798 1861.115217 204.05984 1822.305786 273.467013 C 1806.371167 303.252261 1781.356977 327.348731 1752.461205 344.475302 C 1823.689754 476.270287 1892.25897 609.553493 1963.087705 741.496511 C 1994.819767 727.949974 2031.838148 729.700943 2062.275579 745.904666 C 2114.45258 771.292981 2136.167919 840.67202 2113.196405 892.821469 C 2092.206644 944.33508 2029.160637 972.7841 1976.389296 956.463563 C 1957.199589 951.615521 1940.744236 939.984814 1927.069482 926.135549 C 1853.281119 987.965805 1782.276684 1053.045771 1708.079452 1114.432903 C 1683.66293 1134.929862 1659.820635 1156.165427 1636.265354 1177.609464 C 1668.435984 1227.604125 1689.526938 1285.247195 1696.787174 1344.185331 C 1838.898999 1326.077046 1981.394882 1310.498361 2123.916945 1295.084839 C 2297.540713 1273.149586 2471.872159 1256.960367 2645.321319 1233.816811 C 2646.703452 1176.420875 2671.975249 1118.488788 2719.343266 1084.381085 C 2784.837249 1035.700587 2883.772756 1039.691602 2943.705776 1095.850515 C 3013.526855 1157.671632 3019.510467 1275.953005 2955.862728 1344.184269 C 2902.696018 1406.75832 2804.292749 1420.223714 2734.214895 1379.319535 C 2713.63068 1368.665022 2697.467677 1351.722352 2682.556286 1334.344241 C 2525.052207 1430.625979 2367.443598 1526.56873 2210.57477 1623.867232 C 2229.416874 1671.809621 2209.067257 1732.381565 2161.170134 1754.179464 C 2189.75681 1857.720139 2220.57741 1960.720452 2249.989898 2064.13022 C 2309.657 2054.73961 2366.337766 2109.500833 2360.836217 2169.107448 C 2357.935571 2216.923969 2315.735592 2257.679125 2267.912953 2259.012262 C 2227.46316 2261.462386 2188.586938 2235.387878 2173.602584 2198.110179 C 1978.987539 2254.780411 1785.148096 2314.527703 1591.186408 2373.397016 C 1604.468879 2428.349823 1586.014786 2489.450924 1545.543996 2528.83144 C 1497.184563 2576.658234 1418.376738 2590.268189 1357.259735 2559.96474 C 1320.075068 2542.104647 1289.271736 2510.34831 1274.634247 2471.627264 C 1251.080834 2410.412626 1267.640039 2335.542029 1315.566575 2290.645239 C 1220.620323 2184.823752 1125.830375 2078.706588 1035.08091 1969.239932 C 995.804476 1999.813113 934.277917 1996.51221 900.862916 1958.854514 C 883.794579 1939.938949 876.867503 1914.184051 877.313076 1889.224477 C 727.350784 1864.217323 576.973114 1842.357502 426.681672 1819.332687 C 418.657426 1819.233246 409.856599 1814.448432 402.382943 1819.104051 C 391.642835 1884.7559 347.559466 1944.924993 286.103275 1971.547391 C 197.723815 2013.747701 81.895607 1979.452409 31.00448 1895.633678 C -25.62578 1809.575493 -2.343363 1682.591414 82.513615 1623.510292 C 162.666917 1563.70177 285.254645 1576.980537 351.962206 1651.096289 C 433.541632 1563.328307 515.555912 1475.846949 596.769975 1387.696671 C 551.968857 1339.839626 577.151591 1249.836931 640.891475 1233.028209 C 698.447339 1211.493935 767.746017 1257.736454 768.027106 1319.643352 C 818.167301 1326.628572 868.376792 1333.196458 918.551635 1339.973011 C 926.548872 1295.682987 937.771398 1251.338839 959.620394 1211.761007 C 834.8308 1151.694667 706.203665 1099.889574 580.702037 1041.205948 C 569.515237 1058.539084 555.250203 1074.717845 535.659651 1082.614853 C 496.315539 1101.973341 444.86765 1088.981644 418.400673 1054.353784 C 392.238231 1020.151724 391.998444 968.972694 418.362708 934.808222 C 438.167899 908.185086 471.90809 894.489536 504.737563 898.546855 C 529.989105 778.751179 555.605816 659.016136 581.109531 539.315936 C 552.06739 530.205335 526.618301 511.07753 510.866957 484.875934 C 484.690568 442.041146 486.193967 383.914874 514.935884 342.533275 C 534.704274 312.580516 568.014555 292.434582 603.586065 288.048755 C 655.23817 279.471525 710.755413 307.987502 733.39625 355.327722 C 748.827302 383.781153 750.568966 417.198261 744.563368 448.524928 C 859.234802 496.24383 975.321249 540.606145 1089.793069 588.881559 C 1117.883636 534.312177 1199.55217 521.552453 1242.74243 565.228861 C 1336.467281 478.244606 1435.933614 397.359759 1530.067334 310.818628 C 1455.703239 240.845685 1464.681915 109.288786 1541.667821 44.665942 M 1258.751868 586.970487 C 1270.656473 606.31518 1275.678188 629.663112 1270.510441 652.069644 C 1346.047363 677.852344 1423.137301 698.4788 1498.986637 723.348484 C 1534.225679 601.190767 1570.699402 479.345268 1605.216771 357.014119 C 1585.600872 351.827286 1566.886979 343.145081 1551.525955 329.766296 C 1453.12263 414.579999 1355.128174 499.836828 1258.751868 586.970487 M 1632.014565 363.822283 C 1595.897543 486.102244 1560.693539 608.694619 1524.993853 731.043876 C 1647.222822 769.082212 1769.868342 805.903191 1891.498469 845.611062 C 1895.502251 810.521288 1909.964209 775.077407 1939.874984 754.42062 C 1867.985394 622.087035 1799.3461 487.934512 1728.09964 355.278873 C 1697.331 366.251521 1664.140861 369.531813 1632.014565 363.822283 M 702.222938 515.630447 C 761.140072 602.443583 820.065868 689.204552 879.817281 775.512952 C 946.127189 739.029067 1015.152513 707.498877 1081.801799 671.553789 C 1076.93952 653.056783 1075.641126 633.757799 1079.889542 614.950974 C 965.383271 567.20589 849.340329 522.904404 735.077176 474.663637 C 727.132207 490.551664 715.517062 504.007719 702.222938 515.630447 M 607.802208 544.820125 C 582.246326 664.511663 557.620785 784.411282 531.96057 904.085497 C 547.656666 910.926497 561.789714 920.724269 573.212241 933.609916 C 665.437318 882.131204 760.995736 836.727284 854.561196 787.829752 C 795.610197 702.511935 737.858448 616.428351 679.011783 531.127857 C 657.215445 542.947018 632.354283 547.074214 607.802208 544.820125 M 1261.103184 679.347166 C 1251.458926 702.886588 1231.761055 720.14666 1208.293813 729.115339 C 1223.337034 820.275886 1239.988372 911.113791 1254.205781 1002.405245 C 1308.048306 993.226825 1362.813438 1000.122295 1415.651725 1012.165544 C 1439.114325 924.128648 1468.280823 837.574886 1490.760915 749.321248 C 1414.312345 725.477773 1337.56022 702.816811 1261.103184 679.347166 M 894.984171 798.454807 C 957.250405 888.6651 1019.742631 978.805706 1081.087773 1069.720741 C 1124.066681 1037.510912 1175.459177 1016.61502 1228.171159 1006.820043 C 1210.763891 916.660698 1198.224482 825.594257 1181.582197 735.34751 C 1149.025548 736.749601 1116.485881 723.198703 1096.857064 696.782126 C 1029.136694 729.815513 962.103937 764.195989 894.984171 798.454807 M 1439.416746 1021.096791 C 1510.520663 1048.073211 1575.098538 1094.014326 1621.315793 1154.65009 C 1717.277896 1072.593741 1811.578344 988.599731 1908.42787 907.655621 C 1901.848391 895.949356 1902.766598 876.214343 1887.472078 872.120274 C 1764.443283 834.056343 1641.622569 795.062072 1518.368174 757.711154 C 1490.984401 845.150578 1466.452675 933.4924 1439.416746 1021.096791 M 587.414535 957.195683 C 592.72033 975.927146 595.314233 995.494844 590.892187 1014.701679 C 717.055051 1074.245568 846.421771 1127.084749 972.315531 1187.280821 C 996.208282 1148.953623 1024.431467 1112.310347 1060.64973 1084.981737 C 995.775546 994.981677 932.91737 903.493786 871.041115 811.257649 C 776.179754 859.243142 681.066026 906.811496 587.414535 957.195683 M 2517.813168 1277.936132 C 2372.760916 1292.768723 2228.163386 1311.96522 2083.128848 1327.336803 C 1955.002675 1341.602705 1827.041859 1356.164089 1699.072774 1371.420965 C 1701.216993 1409.193318 1697.397458 1447.047542 1689.074057 1483.939517 C 1803.882711 1528.572111 1919.67211 1570.526482 2033.994722 1616.472104 C 2065.638946 1558.579607 2153.649174 1552.501397 2195.869111 1601.698826 C 2351.772364 1503.435923 2509.720546 1408.353631 2666.728942 1311.828774 C 2658.130129 1296.142072 2652.147339 1279.227983 2649.389448 1261.616443 C 2605.586003 1267.476496 2561.669172 1272.728067 2517.813168 1277.936132 M 728.434926 1402.804263 C 756.946978 1455.139726 783.990284 1508.249813 811.954877 1560.976821 C 852.701377 1546.085985 893.787449 1532.055609 935.29164 1519.381179 C 917.97911 1470.620662 913.044113 1418.340402 916.751094 1366.959017 C 866.272304 1360.721651 815.983878 1353.014953 765.383821 1347.507923 C 759.824725 1369.688659 747.544183 1389.734861 728.434926 1402.804263 M 369.067539 1673.66314 C 377.628965 1685.055229 385.164966 1697.134737 391.214897 1710.093202 C 521.980441 1661.529473 654.13046 1616.572742 785.601333 1569.895094 C 757.151284 1519.446103 732.125356 1467.099825 703.666645 1416.703 C 674.879954 1427.361473 642.81566 1423.538415 616.91635 1407.444947 C 535.625114 1497.351378 451.306832 1584.503781 369.067539 1673.66314 M 1680.474897 1510.547141 C 1667.106239 1556.83996 1645.033992 1600.990757 1614.629246 1638.50472 C 1714.678894 1716.17325 1813.086755 1795.981403 1912.667293 1874.215303 C 1955.992333 1825.070146 2001.361521 1777.818948 2045.104092 1729.064749 C 2023.625212 1705.396473 2018.510615 1672.276999 2024.325457 1641.77634 C 1910.038471 1597.230365 1795.187292 1554.145256 1680.474897 1510.547141 M 825.132528 1586.536657 C 864.757433 1657.174063 900.384578 1729.935138 939.64451 1800.833574 C 968.831409 1790.670393 1002.067792 1791.954209 1027.734015 1810.742832 C 1049.85877 1781.449352 1068.426345 1749.689056 1090.925125 1720.725704 C 1025.236968 1678.88864 975.262331 1615.377583 944.739265 1544.160862 C 904.713656 1557.938478 864.496313 1570.933788 825.132528 1586.536657 M 398.272684 1736.352249 C 402.317226 1753.963006 404.866646 1771.861561 405.877438 1789.987085 C 564.731139 1811.485311 723.256669 1836.574191 881.521757 1862.263087 C 888.134809 1843.420049 899.086956 1826.208766 915.641213 1814.64491 C 875.693471 1742.077723 838.813539 1667.822112 799.317779 1595.115552 C 664.968483 1640.403977 531.995 1689.351568 398.272684 1736.352249 M 1374.068679 1781.086904 C 1391.393825 1936.309143 1408.831967 2091.496538 1425.939784 2246.736296 C 1466.172052 2243.982028 1506.631827 2257.936706 1537.726922 2283.416092 C 1654.967172 2152.306242 1776.921912 2025.409916 1893.883809 1894.039428 C 1793.886523 1816.701222 1696.408416 1736.136161 1595.777054 1659.711168 C 1538.334035 1723.826587 1457.620944 1763.761898 1374.068679 1781.086904 M 1049.026494 1828.108367 C 1078.543958 1861.152137 1081.732443 1914.911371 1054.760479 1950.47588 C 1147.031444 2060.141562 1244.750417 2165.083309 1336.595581 2275.053526 C 1354.72233 2261.767382 1375.555245 2252.522111 1398.026765 2250.195943 C 1383.43103 2094.354798 1364.193231 1939.0294 1348.328364 1783.406368 C 1266.865562 1791.375797 1183.014001 1774.022246 1111.580397 1733.857848 C 1090.856658 1765.367341 1070.567774 1797.163459 1049.026494 1828.108367 M 1935.037365 1890.902082 C 2020.198034 1959.4514 2109.580694 2022.912398 2192.795433 2093.818863 C 2202.414047 2085.284597 2213.024417 2077.879894 2224.278896 2071.761451 C 2192.511022 1969.300717 2163.107392 1866.160444 2135.824691 1762.514653 C 2111.632644 1766.163294 2086.184875 1763.492458 2065.971945 1748.664795 C 2020.584455 1794.412013 1979.363607 1844.120973 1935.037365 1890.902082 M 1691.50915 2156.926386 C 1645.505495 2204.447471 1603.155279 2255.469851 1556.168724 2302.130868 C 1567.495775 2315.268687 1575.885726 2330.599079 1582.20711 2346.765314 C 1777.107605 2287.730251 1972.37405 2230.042472 2167.152692 2170.772756 C 2165.297982 2151.59582 2168.381209 2132.381106 2178.812275 2116.048193 C 2091.825767 2047.19571 2003.301609 1980.178511 1915.97631 1911.75222 C 1841.791801 1994.047433 1766.493877 2075.300093 1691.50915 2156.926386 Z M 1691.50915 2156.926386 " stroke="#010201" stroke-width="0.094" stroke-opacity="1" stroke-miterlimit="4"/></g></g></g></svg>