<svg width="900" height="620" viewBox="0 0 900 620" fill="none" xmlns="http://www.w3.org/2000/svg">
  <defs>
    <linearGradient id="bg" x1="0" y1="0" x2="1" y2="1">
      <stop offset="0%" stop-color="#273963" />
      <stop offset="100%" stop-color="#0E162C" />
    </linearGradient>
    <linearGradient id="glass" x1="0" y1="0" x2="0" y2="1">
      <stop offset="0%" stop-color="rgba(255,255,255,0.18)" />
      <stop offset="100%" stop-color="rgba(255,255,255,0.02)" />
    </linearGradient>
    <linearGradient id="accent" x1="0" y1="0" x2="1" y2="0">
      <stop offset="0%" stop-color="#709DFF" />
      <stop offset="100%" stop-color="#4F79FF" />
    </linearGradient>
  </defs>
  <rect width="900" height="620" rx="36" fill="url(#bg)" />
  <rect x="44" y="40" width="812" height="540" rx="28" fill="url(#glass)" stroke="rgba(255,255,255,0.12)" />
  <rect x="72" y="86" width="380" height="28" rx="14" fill="rgba(255,255,255,0.08)" />
  <rect x="72" y="132" width="520" height="32" rx="16" fill="rgba(255,255,255,0.08)" />
  <rect x="72" y="190" width="520" height="32" rx="16" fill="rgba(255,255,255,0.08)" />
  <rect x="72" y="248" width="520" height="32" rx="16" fill="rgba(255,255,255,0.08)" />
  <rect x="72" y="306" width="420" height="20" rx="10" fill="rgba(255,255,255,0.16)" />
  <rect x="640" y="150" width="180" height="260" rx="26" fill="rgba(15,26,48,0.75)" />
  <rect x="666" y="184" width="128" height="90" rx="20" fill="#E1EDFF" />
  <rect x="666" y="296" width="128" height="90" rx="20" fill="rgba(255,255,255,0.12)" />
  <rect x="96" y="442" width="220" height="56" rx="16" fill="rgba(255,255,255,0.06)" stroke="rgba(255,255,255,0.12)" />
  <rect x="340" y="442" width="220" height="56" rx="16" fill="rgba(255,255,255,0.06)" stroke="rgba(255,255,255,0.12)" />
  <rect x="584" y="442" width="220" height="56" rx="16" fill="rgba(255,255,255,0.06)" stroke="rgba(255,255,255,0.12)" />
  <rect x="122" y="462" width="80" height="16" rx="8" fill="url(#accent)" />
  <rect x="366" y="462" width="80" height="16" rx="8" fill="url(#accent)" />
  <rect x="610" y="462" width="80" height="16" rx="8" fill="url(#accent)" />
</svg>
